<svg xmlns="http://www.w3.org/2000/svg" viewBox="0 0 64 64">
<rect width="64" height="64" rx="15" fill="#f3f0e6"/>
<g fill="#2496ED">
<rect x="14" y="28" width="8" height="7" rx="1.2"/>
<rect x="23" y="28" width="8" height="7" rx="1.2"/>
<rect x="32" y="28" width="8" height="7" rx="1.2"/>
<rect x="23" y="19" width="8" height="7" rx="1.2"/>
<rect x="32" y="19" width="8" height="7" rx="1.2"/>
</g>
<path d="M12 35c0 9 7 15 18 15 11 0 18-5 20-15-2 1-3 1-5 1-1-3-4-5-4-5s-3 3-3 6c-1 .3-2 .3-3 .3H12z" fill="#2496ED"/>
</svg>
